<?xml version="1.0" standalone="no"?>
<!DOCTYPE svg PUBLIC "-//W3C//DTD SVG 20010904//EN"
 "http://www.w3.org/TR/2001/REC-SVG-20010904/DTD/svg10.dtd">
<svg version="1.0" xmlns="http://www.w3.org/2000/svg"
 width="96.000000pt" height="96.000000pt" viewBox="0 0 96.000000 96.000000"
 preserveAspectRatio="xMidYMid meet">
<metadata>
Created by potrace 1.11, written by Peter Selinger 2001-2013
</metadata>
<g transform="translate(0.000000,96.000000) scale(0.100000,-0.100000)"
fill="#000000" stroke="none">
<path d="M464 848 c-3 -13 -14 -41 -24 -63 -10 -22 -30 -70 -46 -107 -26 -61
-32 -68 -59 -68 -54 -1 -179 -12 -217 -19 l-37 -6 94 -78 c134 -113 126 -98
103 -192 -41 -171 -46 -195 -40 -191 4 1 60 35 124 74 l117 72 104 -64 c57
-35 113 -68 124 -74 18 -10 17 -2 -13 130 l-33 141 27 21 c15 11 34 28 42 36
8 8 46 41 83 73 38 31 62 57 55 57 -20 1 -130 11 -158 15 -14 2 -46 4 -71 4
l-47 1 -53 130 c-30 71 -57 130 -61 130 -4 0 -10 -10 -14 -22z"/>
</g>
</svg>
